<svg width="99" height="127" viewBox="0 0 99 127" fill="none" xmlns="http://www.w3.org/2000/svg">
    <path opacity="0.19" d="M74.3255 13.9664C73.7809 13.5423 73.2311 13.1302 72.675 12.7305L-19.5881 101.309C-19.1679 101.839 -18.7372 102.367 -18.2982 102.893L74.3255 13.9664Z" fill="#4181E0"/>
    <path opacity="0.19" d="M51.7868 2.5937C51.0206 2.37572 50.2522 2.1761 49.4808 1.98602L-30.7776 79.0402C-30.579 79.7819 -30.3709 80.5205 -30.1441 81.2542L51.7868 2.5937Z" fill="#4181E0"/>
    <path opacity="0.19" d="M67.6185 9.40269C67.0112 9.03999 66.3965 8.68923 65.7756 8.35042L-24.1501 94.6853C-23.7947 95.2794 -23.4289 95.8695 -23.0536 96.4556L67.6185 9.40269Z" fill="#4181E0"/>
    <path opacity="0.19" d="M60.137 5.5802C59.4565 5.28544 58.7728 5.00203 58.085 4.72995L-27.9197 87.3008C-27.6364 87.9622 -27.3416 88.6195 -27.0332 89.2709L60.137 5.5802Z" fill="#4181E0"/>
    <path opacity="0.19" d="M42.3804 0.625548C41.5085 0.505418 40.6357 0.405259 39.7607 0.319351L-32.5154 69.709C-32.4255 70.549 -32.3209 71.388 -32.1965 72.224L42.3804 0.625548Z" fill="#4181E0"/>
    <path opacity="0.19" d="M79.5889 18.508C79.3411 18.2694 79.0923 18.0419 78.8435 17.8112L-14.2966 107.233C-14.0552 107.472 -13.8158 107.711 -13.5712 107.949C-13.3255 108.188 -13.0736 108.415 -12.8248 108.646L80.3143 19.2238C80.0729 18.9852 79.8335 18.7418 79.5889 18.508Z" fill="#4181E0"/>
    <path opacity="0.19" d="M31.5678 0C30.5402 0.0201723 29.5137 0.0647305 28.4893 0.133577L-32.7073 58.8875C-32.7784 59.871 -32.8254 60.8563 -32.8484 61.843L31.5678 0Z" fill="#4181E0"/>
    <path opacity="0.19" d="M-31.2544 49.3106L18.5134 1.52707C17.1879 1.8129 15.8687 2.13897 14.5568 2.50538L-30.2373 45.5104C-30.6199 46.7681 -30.9596 48.0348 -31.2544 49.3106Z" fill="#4181E0"/>
    <path opacity="0.19" d="M98.7258 67.5661C98.7948 66.5816 98.8419 65.5961 98.8649 64.6105L34.4497 126.453C35.4773 126.431 36.5038 126.387 37.5283 126.32L98.7258 67.5661Z" fill="#4181E0"/>
    <path opacity="0.19" d="M98.5346 56.7463C98.4436 55.9065 98.3402 55.0674 98.2158 54.2306L23.6399 125.83C24.5107 125.949 25.3835 126.05 26.2595 126.136L98.5346 56.7463Z" fill="#4181E0"/>
    <path opacity="0.19" d="M96.2558 80.9411C96.6363 79.6836 96.976 78.417 97.2729 77.1425L47.5051 124.926C48.8306 124.638 50.1488 124.311 51.4618 123.947L96.2558 80.9411Z" fill="#4181E0"/>
    <path opacity="0.19" d="M66.4666 117.723C76.0712 112.265 84.0858 104.571 89.7704 95.3497L66.4666 117.723Z" fill="#4181E0"/>
    <path opacity="0.19" d="M90.1675 31.7673C89.8131 31.174 89.4473 30.5844 89.072 29.9985L-1.6001 117.051C-0.992753 117.413 -0.379143 117.763 0.241792 118.103L90.1675 31.7673Z" fill="#4181E0"/>
    <path opacity="0.19" d="M85.6058 25.1452C85.1856 24.6113 84.757 24.0826 84.319 23.5593L-8.30688 112.487C-7.76331 112.911 -7.21345 113.323 -6.65733 113.723L85.6058 25.1452Z" fill="#4181E0"/>
    <path opacity="0.19" d="M96.7951 47.4113C96.5965 46.6716 96.3875 45.9327 96.1617 45.1986L14.2307 123.86C14.9949 124.078 15.7642 124.276 16.5347 124.467L96.7951 47.4113Z" fill="#4181E0"/>
    <path opacity="0.19" d="M93.9383 39.1515C93.6539 38.4913 93.3591 37.8349 93.0508 37.1821L5.88062 120.874C6.56113 121.169 7.24477 121.455 7.93261 121.726L93.9383 39.1515Z" fill="#4181E0"/>
</svg>
