<svg width="401" height="386" viewBox="0 0 401 386" fill="none" xmlns="http://www.w3.org/2000/svg">
    <path opacity="0.16" fill-rule="evenodd" clip-rule="evenodd" d="M284.928 19.7372C185.317 -24.8566 66.9109 16.5186 20.4558 112.15C-25.9888 207.783 17.1002 321.459 116.711 366.053C216.322 410.647 334.728 369.272 381.183 273.639C427.628 178.007 384.528 64.331 284.928 19.7372ZM19.515 111.727C66.2 15.5913 185.233 -26.0007 285.367 18.8279C385.5 63.6556 428.819 177.929 382.124 274.063C335.428 370.198 216.406 411.791 116.272 366.962C16.1386 322.135 -27.1805 207.861 19.515 111.727ZM279.617 30.6663C186.289 -11.1134 75.3573 27.6505 31.8396 117.247C-11.6781 206.843 28.7036 313.343 122.021 355.123C215.35 396.902 326.281 358.139 369.799 268.543C413.317 178.947 372.935 72.446 279.617 30.6663ZM30.8883 116.822C74.6568 26.7232 186.205 -12.2564 280.056 29.7571C373.897 71.7707 414.509 178.868 370.74 268.967C326.982 359.065 215.423 398.046 121.582 356.032C27.7314 314.019 -12.8698 206.921 30.8883 116.822ZM274.307 41.5955C187.272 2.63087 83.8141 38.7824 43.2234 122.342C2.64316 205.902 40.2964 305.228 127.332 344.193C214.367 383.157 317.825 347.006 358.415 263.445C398.996 179.886 361.342 80.5601 274.307 41.5955ZM42.2826 121.918C83.1137 37.8561 187.188 1.48677 274.746 40.6862C362.304 79.8847 400.187 179.808 359.356 263.87C318.525 347.932 214.451 384.3 126.893 345.102C39.3346 305.904 1.45144 205.981 42.2826 121.918ZM268.997 52.5256C188.244 16.3751 92.2605 49.9163 54.6072 127.44C16.9539 204.964 51.8892 297.115 132.642 333.265C213.384 369.415 309.378 335.874 347.032 258.35C384.685 180.826 349.75 88.6752 268.997 52.5256ZM53.6664 127.016C91.5601 48.989 188.171 15.232 269.436 51.6154C350.711 87.9998 385.877 180.748 347.972 258.775C310.079 336.8 213.468 370.558 132.203 334.175C50.9276 297.79 15.7622 205.042 53.6664 127.016ZM263.686 63.4548C189.227 30.1194 100.717 61.0482 65.9909 132.535C31.275 204.024 63.4822 288.999 137.952 322.334C212.412 355.67 300.922 324.741 335.648 253.254C370.364 181.766 338.146 96.7893 263.686 63.4548ZM65.0502 132.112C100.006 60.1209 189.143 28.9753 264.125 62.5446C339.118 96.1149 371.555 181.687 336.589 253.677C301.622 325.667 212.496 356.814 137.503 323.245C62.5204 289.674 30.0834 204.102 65.0502 132.112ZM258.376 74.384C190.209 43.8626 109.164 72.1801 77.3747 137.632C45.5858 203.083 75.0854 280.884 143.263 311.404C211.43 341.925 292.465 313.608 324.264 248.157C356.053 182.705 326.553 104.904 258.376 74.384ZM76.434 137.207C108.463 71.2538 190.126 42.7196 258.826 73.4738C327.515 104.229 357.245 182.627 325.205 248.58C293.176 314.535 211.513 343.069 142.813 312.314C74.1238 281.559 44.3942 203.161 76.434 137.207Z" fill="#3680EE"/>
</svg>
