<svg width="21" height="21" viewBox="0 0 21 21" fill="none" xmlns="http://www.w3.org/2000/svg">
<path d="M14.0117 11L20.9757 15.062L18.0027 15.912L20.1277 19.593L18.3957 20.593L16.2707 16.913L14.0477 19.063L14.0117 11ZM12.0117 4H14.0117V6H19.0117C19.2769 6 19.5313 6.10536 19.7188 6.29289C19.9064 6.48043 20.0117 6.73478 20.0117 7V11H18.0117V8H8.01172V18H12.0117V20H7.01172C6.7465 20 6.49215 19.8946 6.30461 19.7071C6.11708 19.5196 6.01172 19.2652 6.01172 19V14H4.01172V12H6.01172V7C6.01172 6.73478 6.11708 6.48043 6.30461 6.29289C6.49215 6.10536 6.7465 6 7.01172 6H12.0117V4ZM2.01172 12V14H0.0117188V12H2.01172ZM2.01172 8V10H0.0117188V8H2.01172ZM2.01172 4V6H0.0117188V4H2.01172ZM2.01172 0V2H0.0117188V0H2.01172ZM6.01172 0V2H4.01172V0H6.01172ZM10.0117 0V2H8.01172V0H10.0117ZM14.0117 0V2H12.0117V0H14.0117Z" fill="#F87F28"/>
</svg>
