<svg width="34" height="32" viewBox="0 0 34 32" fill="none" xmlns="http://www.w3.org/2000/svg">
    <path d="M5.1153 2.60003C5.1153 2.99746 4.98988 3.38683 4.75989 3.71701C4.5299 4.04819 4.2058 4.30609 3.819 4.45764C3.4322 4.61018 3.01401 4.65034 2.6063 4.57206C2.19859 4.49478 1.83268 4.30312 1.53996 4.02212C1.24725 3.74011 1.0487 3.38179 0.965067 2.99139C0.881435 2.60199 0.923236 2.19756 1.08005 1.83025C1.23686 1.46193 1.50865 1.14882 1.85364 0.928033C2.19862 0.706239 2.60631 0.588806 3.01402 0.588806C3.29628 0.588806 3.56811 0.641008 3.819 0.742371C4.0699 0.843734 4.29991 0.991283 4.49854 1.17795C4.69717 1.36462 4.84345 1.58638 4.94799 1.83025C5.05254 2.07412 5.1153 2.33609 5.1153 2.60003Z" fill="#A2BADD"/>
    <path d="M19.3214 2.60001C19.3214 2.99743 19.2065 3.3868 18.9765 3.71698C18.7465 4.04816 18.412 4.30505 18.0356 4.4576C17.6489 4.61014 17.2307 4.64929 16.823 4.57202C16.4153 4.49474 16.0391 4.30305 15.7464 4.02104C15.4537 3.74004 15.255 3.38176 15.1819 2.99136C15.0982 2.60097 15.14 2.19657 15.2968 1.82926C15.4536 1.46195 15.7254 1.14784 16.0704 0.92705C16.4154 0.706262 16.823 0.588806 17.2307 0.588806C17.513 0.588806 17.7848 0.641008 18.0356 0.742369C18.2865 0.842728 18.5165 0.991279 18.7152 1.17795C18.9033 1.36461 19.06 1.58637 19.1646 1.83024C19.2691 2.07411 19.3214 2.33607 19.3214 2.60001Z" fill="#A2BADD"/>
    <path d="M33.5484 2.60001C33.5484 2.99743 33.423 3.38579 33.193 3.71698C32.963 4.04816 32.639 4.30505 32.2522 4.4576C31.8759 4.61014 31.4474 4.64929 31.0397 4.57202C30.6424 4.49474 30.2661 4.30308 29.9734 4.02208C29.6807 3.74007 29.482 3.38179 29.3984 2.9924C29.3148 2.60201 29.3566 2.19755 29.5134 1.83024C29.6806 1.46293 29.942 1.14882 30.2869 0.92803C30.6319 0.707242 31.0396 0.588806 31.4472 0.588806C31.7295 0.588806 32.0013 0.641031 32.2522 0.741389C32.5031 0.842751 32.7435 0.991279 32.9317 1.17795C33.1303 1.36461 33.2767 1.58637 33.3917 1.83024C33.4962 2.07411 33.5484 2.33607 33.5484 2.60001Z" fill="#A2BADD"/>
    <path d="M5.1153 16.251C5.1153 16.6484 4.98988 17.0378 4.75989 17.3679C4.5299 17.6991 4.2058 17.9571 3.819 18.1096C3.4322 18.2612 3.01401 18.3013 2.6063 18.224C2.19859 18.1468 1.83268 17.9551 1.53996 17.6731C1.24725 17.392 1.0487 17.0338 0.965067 16.6434C0.881435 16.253 0.923236 15.8485 1.08005 15.4812C1.23686 15.1139 1.50865 14.7998 1.85364 14.579C2.19862 14.3582 2.60631 14.2408 3.01402 14.2408C3.56809 14.2408 4.10129 14.4525 4.49854 14.8289C4.88534 15.2062 5.1153 15.7171 5.1153 16.251Z" fill="#A2BADD"/>
    <path d="M19.3214 16.251C19.3214 16.6484 19.2065 17.0378 18.9765 17.3679C18.7465 17.6991 18.412 17.9571 18.0356 18.1096C17.6489 18.2612 17.2307 18.3013 16.823 18.224C16.4153 18.1468 16.0496 17.9551 15.7569 17.6731C15.4537 17.392 15.255 17.0338 15.1819 16.6434C15.0982 16.253 15.14 15.8485 15.2968 15.4812C15.4536 15.1139 15.7254 14.7998 16.0704 14.579C16.4154 14.3582 16.823 14.2408 17.2307 14.2408C17.7847 14.2408 18.3179 14.4525 18.7152 14.8289C19.1019 15.2062 19.3214 15.7171 19.3214 16.251Z" fill="#A2BADD"/>
    <path d="M33.5484 16.251C33.5484 16.6484 33.423 17.0368 33.193 17.3679C32.963 17.6991 32.639 17.9571 32.2522 18.1096C31.8759 18.2612 31.4474 18.3013 31.0397 18.224C30.6424 18.1468 30.2661 17.955 29.9734 17.674C29.6807 17.393 29.482 17.0347 29.3984 16.6443C29.3148 16.2539 29.3566 15.8495 29.5134 15.4822C29.6806 15.1149 29.942 14.8007 30.2869 14.5799C30.6319 14.3582 31.0396 14.2408 31.4472 14.2408C31.7295 14.2408 32.0013 14.2919 32.2522 14.3933C32.5031 14.4947 32.7331 14.6422 32.9317 14.8289C33.1303 15.0156 33.2767 15.2373 33.3917 15.4812C33.4962 15.7251 33.5484 15.986 33.5484 16.251Z" fill="#A2BADD"/>
    <path d="M5.1153 29.9018C5.1153 30.3003 4.98988 30.6887 4.75989 31.0198C4.5299 31.351 4.2058 31.6089 3.819 31.7605C3.4322 31.913 3.01401 31.9531 2.6063 31.8759C2.19859 31.7976 1.83268 31.6069 1.53996 31.3249C1.24725 31.0439 1.0487 30.6857 0.965067 30.2953C0.881435 29.9049 0.923236 29.5004 1.08005 29.1331C1.23686 28.7658 1.50865 28.4517 1.85364 28.2309C2.19862 28.0101 2.60631 27.8916 3.01402 27.8926C3.56809 27.8926 4.10129 28.1044 4.49854 28.4807C4.88534 28.8581 5.1153 29.3689 5.1153 29.9018Z" fill="#A2BADD"/>
    <path d="M19.3214 29.9018C19.3214 30.3003 19.2065 30.6887 18.9765 31.0198C18.7465 31.351 18.412 31.6089 18.0356 31.7605C17.6489 31.913 17.2307 31.9531 16.823 31.8759C16.4153 31.7976 16.0496 31.6069 15.7569 31.3249C15.4537 31.0439 15.255 30.6857 15.1819 30.2953C15.0982 29.9049 15.14 29.5004 15.2968 29.1331C15.4536 28.7658 15.7254 28.4517 16.0704 28.2309C16.4154 28.0101 16.823 27.8916 17.2307 27.8926C17.7847 27.8926 18.3179 28.1044 18.7152 28.4807C19.1019 28.8581 19.3214 29.3689 19.3214 29.9018Z" fill="#A2BADD"/>
    <path d="M33.5484 29.9018C33.5484 30.3003 33.423 30.6887 33.193 31.0198C32.963 31.351 32.639 31.6089 32.2522 31.7605C31.8759 31.913 31.4474 31.9531 31.0397 31.8759C30.6424 31.7986 30.2661 31.6069 29.9734 31.3259C29.6807 31.0439 29.482 30.6856 29.3984 30.2962C29.3148 29.9059 29.3566 29.5014 29.5134 29.1341C29.6806 28.7668 29.942 28.4527 30.2869 28.2309C30.6319 28.0101 31.0396 27.8927 31.4472 27.8927C31.7295 27.8916 32.0013 27.9439 32.2522 28.0452C32.5031 28.1456 32.7331 28.2941 32.9317 28.4808C33.1303 28.6674 33.2767 28.8892 33.3917 29.1331C33.4962 29.377 33.5484 29.6379 33.5484 29.9018Z" fill="#A2BADD"/>
</svg>
