<svg width="75" height="46" viewBox="0 0 75 46" fill="none" xmlns="http://www.w3.org/2000/svg">
    <path d="M4.44721 2.93639C4.44721 3.33081 4.32491 3.7162 4.09703 4.04437C3.86914 4.37255 3.54404 4.62847 3.16458 4.77901C2.78512 4.92955 2.36801 4.9697 1.96451 4.89242C1.56205 4.81514 1.192 4.62546 0.901393 4.34645C0.610786 4.06745 0.413209 3.71217 0.332717 3.32478C0.252226 2.93839 0.294046 2.53697 0.450849 2.17266C0.607651 1.80836 0.874209 1.49621 1.21604 1.27742C1.55787 1.05864 1.95928 0.941223 2.3701 0.941223C2.921 0.941223 3.44889 1.15199 3.83776 1.52633C4.22768 1.89967 4.44616 2.40749 4.44721 2.93639Z" fill="#A2BADD"/>
    <path d="M18.5458 2.93639C18.5458 3.33081 18.4235 3.7162 18.1956 4.04437C17.9667 4.37255 17.6427 4.62847 17.2632 4.77901C16.8837 4.92955 16.4656 4.9697 16.0631 4.89242C15.6607 4.81514 15.2896 4.62546 15 4.34645C14.7094 4.06745 14.5108 3.71217 14.4313 3.32478C14.3508 2.93839 14.3916 2.53697 14.5495 2.17266C14.7063 1.80836 14.9728 1.49621 15.3147 1.27742C15.6554 1.05864 16.0579 0.941223 16.4687 0.941223C17.0186 0.941223 17.5475 1.15199 17.9364 1.52633C18.3263 1.89967 18.5448 2.40749 18.5458 2.93639Z" fill="#A2BADD"/>
    <path d="M32.6476 2.93639C32.6476 3.33081 32.5263 3.7162 32.2974 4.04437C32.0695 4.37255 31.7454 4.62847 31.366 4.77901C30.9865 4.92955 30.5684 4.9697 30.1659 4.89242C29.7624 4.81514 29.3923 4.62546 29.1017 4.34645C28.8111 4.06745 28.6136 3.71217 28.5341 3.32478C28.4536 2.93839 28.4944 2.53697 28.6523 2.17266C28.8091 1.80836 29.0756 1.49621 29.4164 1.27742C29.7582 1.05864 30.1596 0.941223 30.5705 0.941223C31.1213 0.941223 31.6492 1.15199 32.0392 1.52633C32.4291 1.89967 32.6476 2.40749 32.6476 2.93639Z" fill="#A2BADD"/>
    <path d="M46.7472 2.93639C46.7472 3.33081 46.6249 3.7162 46.3971 4.04437C46.1692 4.37255 45.8441 4.62847 45.4646 4.77901C45.0851 4.92955 44.668 4.9697 44.2645 4.89242C43.8621 4.81514 43.492 4.62546 43.2014 4.34645C42.9108 4.06745 42.7132 3.71117 42.6327 3.32478C42.5533 2.93739 42.5941 2.53697 42.7519 2.17165C42.9087 1.80735 43.1753 1.49621 43.5171 1.27742C43.8589 1.05763 44.2604 0.941223 44.6712 0.941223C45.2221 0.941223 45.75 1.15199 46.1388 1.52633C46.5288 1.89967 46.7472 2.40749 46.7472 2.93639Z" fill="#A2BADD"/>
    <path d="M60.8477 2.93639C60.8477 3.33081 60.7265 3.7162 60.4975 4.04437C60.2696 4.37255 59.9456 4.62847 59.5661 4.77901C59.1867 4.92955 58.7685 4.9697 58.3661 4.89242C57.9626 4.81514 57.5926 4.62546 57.3019 4.34645C57.0113 4.06745 56.8138 3.71217 56.7343 3.32478C56.6538 2.93839 56.6946 2.53697 56.8524 2.17266C57.0092 1.80836 57.2758 1.49621 57.6166 1.27742C57.9584 1.05864 58.3598 0.941223 58.7707 0.941223C59.3215 0.941223 59.8505 1.15098 60.2394 1.52532C60.6293 1.89966 60.8477 2.40749 60.8477 2.93639Z" fill="#A2BADD"/>
    <path d="M74.9474 2.93639C74.9474 3.33081 74.8251 3.7162 74.5972 4.04437C74.3683 4.37255 74.0442 4.62847 73.6648 4.77901C73.2853 4.92955 72.8672 4.9697 72.4648 4.89242C72.0623 4.81514 71.6922 4.62546 71.4016 4.34645C71.111 4.06745 70.9135 3.71217 70.833 3.32478C70.7525 2.93839 70.7943 2.53697 70.9511 2.17266C71.1079 1.80836 71.3745 1.49621 71.7163 1.27742C72.0581 1.05864 72.4595 0.941223 72.8703 0.941223C73.4212 0.941223 73.9491 1.15098 74.3391 1.52532C74.7279 1.89966 74.9474 2.40749 74.9474 2.93639Z" fill="#A2BADD"/>
    <path d="M4.44721 16.4778C4.44616 16.8723 4.32385 17.2576 4.09492 17.5848C3.86599 17.912 3.54193 18.1679 3.16142 18.3174C2.78196 18.468 2.36489 18.5071 1.96244 18.4298C1.55998 18.3525 1.18989 18.1619 0.899287 17.8829C0.609726 17.6039 0.412164 17.2486 0.332717 16.8612C0.252226 16.4748 0.294046 16.0734 0.450849 15.7091C0.608696 15.3448 0.875254 15.0336 1.21604 14.8149C1.55787 14.5961 1.95928 14.4787 2.3701 14.4787C2.64294 14.4787 2.91367 14.5308 3.1656 14.6312C3.41753 14.7316 3.64648 14.8791 3.83987 15.0648C4.03221 15.2504 4.18587 15.4712 4.28936 15.7131C4.3939 15.9559 4.44721 16.2159 4.44721 16.4778Z" fill="#A2BADD"/>
    <path d="M18.5458 16.4779C18.5448 16.8723 18.4214 17.2576 18.1936 17.5848C17.9646 17.913 17.6395 18.1679 17.2601 18.3184C16.8796 18.468 16.4625 18.5071 16.06 18.4298C15.6576 18.3516 15.2875 18.1619 14.9969 17.8819C14.7074 17.6029 14.5098 17.2476 14.4303 16.8602C14.3509 16.4728 14.3927 16.0724 14.5506 15.7081C14.7084 15.3438 14.975 15.0326 15.3168 14.8139C15.6576 14.5951 16.06 14.4787 16.4709 14.4787C16.7437 14.4797 17.0134 14.5318 17.2653 14.6322C17.5172 14.7326 17.7462 14.8801 17.9385 15.0658C18.1319 15.2514 18.2845 15.4712 18.388 15.7141C18.4925 15.956 18.5458 16.2159 18.5458 16.4779Z" fill="#A2BADD"/>
    <path d="M32.6476 16.4778C32.6466 16.8723 32.5243 17.2576 32.2954 17.5848C32.0675 17.912 31.7424 18.1679 31.3629 18.3174C30.9834 18.468 30.5653 18.5071 30.1628 18.4298C29.7604 18.3525 29.3903 18.1619 29.1008 17.8829C28.8102 17.6039 28.6136 17.2486 28.5331 16.8612C28.4537 16.4748 28.4945 16.0734 28.6523 15.7091C28.8091 15.3448 29.0757 15.0336 29.4175 14.8149C29.7583 14.5961 30.1597 14.4787 30.5705 14.4787C30.8444 14.4787 31.1141 14.5308 31.366 14.6312C31.619 14.7316 31.8479 14.8791 32.0403 15.0648C32.2337 15.2504 32.3863 15.4712 32.4908 15.7131C32.5953 15.9559 32.6487 16.2159 32.6476 16.4778Z" fill="#A2BADD"/>
    <path d="M46.7472 16.4778C46.7462 16.8723 46.6239 17.2576 46.395 17.5848C46.166 17.912 45.842 18.1679 45.4615 18.3174C45.082 18.468 44.6649 18.5071 44.2625 18.4298C43.859 18.3525 43.49 18.1619 43.1994 17.8829C42.9098 17.6029 42.7122 17.2476 42.6327 16.8612C42.5533 16.4738 42.5941 16.0734 42.7519 15.7091C42.9098 15.3448 43.1763 15.0336 43.5171 14.8149C43.859 14.5951 44.2604 14.4787 44.6712 14.4787C44.944 14.4787 45.2148 14.5308 45.4667 14.6312C45.7186 14.7316 45.9476 14.8791 46.141 15.0648C46.3333 15.2504 46.4859 15.4712 46.5904 15.7131C46.695 15.9559 46.7483 16.2159 46.7472 16.4778Z" fill="#A2BADD"/>
    <path d="M60.8477 16.4779C60.8477 16.8723 60.7265 17.2577 60.4975 17.5858C60.2696 17.914 59.9456 18.17 59.5661 18.3205C59.1867 18.472 58.7685 18.5112 58.3661 18.4339C57.9626 18.3576 57.5926 18.1669 57.3019 17.8879C57.0113 17.6089 56.8138 17.2537 56.7343 16.8673C56.6538 16.4799 56.6946 16.0784 56.8524 15.7141C57.0092 15.3498 57.2758 15.0387 57.6166 14.8189C57.9584 14.6001 58.3598 14.4827 58.7707 14.4827C59.3215 14.4827 59.8505 14.6935 60.2394 15.0668C60.6293 15.4412 60.8477 15.949 60.8477 16.4779Z" fill="#A2BADD"/>
    <path d="M74.9474 16.4779C74.9474 16.8723 74.8251 17.2577 74.5972 17.5858C74.3683 17.914 74.0442 18.17 73.6648 18.3205C73.2853 18.472 72.8672 18.5112 72.4648 18.4339C72.0623 18.3576 71.6922 18.1669 71.4016 17.8879C71.111 17.6089 70.9135 17.2537 70.833 16.8673C70.7525 16.4799 70.7943 16.0784 70.9511 15.7141C71.1079 15.3498 71.3745 15.0387 71.7163 14.8189C72.0581 14.6001 72.4595 14.4827 72.8703 14.4827C73.4212 14.4827 73.9491 14.6935 74.3391 15.0668C74.7279 15.4412 74.9474 15.949 74.9474 16.4779Z" fill="#A2BADD"/>
    <path d="M4.44721 30.0194C4.44721 30.4138 4.32491 30.7992 4.09703 31.1274C3.86914 31.4556 3.54404 31.7115 3.16458 31.862C2.78512 32.0136 2.36801 32.0527 1.96451 31.9755C1.56205 31.8992 1.192 31.7085 0.901393 31.4295C0.610786 31.1505 0.413209 30.7952 0.332717 30.4088C0.252226 30.0214 0.294046 29.621 0.450849 29.2557C0.607651 28.8914 0.874209 28.5803 1.21604 28.3605C1.55787 28.1417 1.95928 28.0243 2.3701 28.0243C2.921 28.0243 3.4489 28.235 3.83882 28.6094C4.22769 28.9827 4.44721 29.4905 4.44721 30.0194Z" fill="#A2BADD"/>
    <path d="M18.5458 30.0194C18.5458 30.4138 18.4235 30.7992 18.1956 31.1274C17.9667 31.4556 17.6427 31.7115 17.2632 31.862C16.8837 32.0136 16.4656 32.0527 16.0631 31.9755C15.6607 31.8992 15.2896 31.7085 15 31.4295C14.7094 31.1505 14.5108 30.7952 14.4313 30.4088C14.3508 30.0214 14.3916 29.621 14.5495 29.2557C14.7063 28.8914 14.9728 28.5803 15.3147 28.3605C15.6554 28.1417 16.0579 28.0243 16.4687 28.0243C17.0196 28.0243 17.5475 28.235 17.9374 28.6094C18.3263 28.9827 18.5458 29.4905 18.5458 30.0194Z" fill="#A2BADD"/>
    <path d="M32.6476 30.0194C32.6476 30.4138 32.5263 30.7992 32.2974 31.1274C32.0695 31.4556 31.7454 31.7115 31.366 31.862C30.9865 32.0136 30.5684 32.0527 30.1659 31.9755C29.7624 31.8992 29.3923 31.7085 29.1017 31.4295C28.8111 31.1505 28.6136 30.7952 28.5341 30.4088C28.4536 30.0214 28.4944 29.621 28.6523 29.2557C28.8091 28.8914 29.0756 28.5803 29.4164 28.3605C29.7582 28.1417 30.1596 28.0243 30.5705 28.0243C30.8433 28.0243 31.114 28.0765 31.366 28.1768C31.6179 28.2772 31.8468 28.4237 32.0392 28.6094C32.2325 28.794 32.3852 29.0138 32.4897 29.2557C32.5942 29.4986 32.6476 29.7575 32.6476 30.0194Z" fill="#A2BADD"/>
    <path d="M46.7472 30.0194C46.7472 30.4138 46.6249 30.7992 46.3971 31.1274C46.1692 31.4556 45.8441 31.7115 45.4646 31.862C45.0851 32.0136 44.668 32.0527 44.2645 31.9755C43.8621 31.8992 43.492 31.7085 43.2014 31.4295C42.9108 31.1505 42.7132 30.7952 42.6327 30.4078C42.5533 30.0214 42.5941 29.62 42.7519 29.2557C42.9087 28.8914 43.1753 28.5793 43.5171 28.3605C43.8589 28.1417 44.2604 28.0243 44.6712 28.0243C44.944 28.0243 45.2137 28.0765 45.4657 28.1768C45.7176 28.2772 45.9465 28.4237 46.1399 28.6094C46.3322 28.794 46.4849 29.0138 46.5894 29.2557C46.6939 29.4986 46.7472 29.7575 46.7472 30.0194Z" fill="#A2BADD"/>
    <path d="M60.8477 30.0194C60.8477 30.4138 60.7265 30.7992 60.4975 31.1274C60.2696 31.4556 59.9456 31.7115 59.5661 31.862C59.1867 32.0136 58.7685 32.0527 58.3661 31.9755C57.9626 31.8992 57.5926 31.7085 57.3019 31.4295C57.0113 31.1505 56.8138 30.7952 56.7343 30.4088C56.6538 30.0214 56.6946 29.621 56.8524 29.2557C57.0092 28.8914 57.2758 28.5803 57.6166 28.3605C57.9584 28.1417 58.3598 28.0243 58.7707 28.0243C59.0435 28.0243 59.3142 28.0764 59.5661 28.1758C59.8181 28.2762 60.047 28.4237 60.2404 28.6084C60.4328 28.794 60.5854 29.0138 60.6899 29.2557C60.7944 29.4976 60.8477 29.7575 60.8477 30.0194Z" fill="#A2BADD"/>
    <path d="M74.9474 30.0194C74.9474 30.4138 74.8251 30.7992 74.5972 31.1274C74.3683 31.4556 74.0442 31.7115 73.6648 31.862C73.2853 32.0136 72.8672 32.0527 72.4648 31.9755C72.0623 31.8992 71.6922 31.7085 71.4016 31.4295C71.111 31.1505 70.9135 30.7952 70.833 30.4088C70.7525 30.0214 70.7943 29.621 70.9511 29.2557C71.1079 28.8914 71.3745 28.5803 71.7163 28.3605C72.0581 28.1417 72.4595 28.0243 72.8703 28.0243C73.1431 28.0243 73.4129 28.0764 73.6648 28.1758C73.9167 28.2762 74.1457 28.4237 74.3391 28.6084C74.5314 28.794 74.6851 29.0138 74.7896 29.2557C74.8931 29.4976 74.9474 29.7575 74.9474 30.0194Z" fill="#A2BADD"/>
    <path d="M2.37008 45.556C3.51682 45.556 4.44718 44.6628 4.44718 43.5609C4.44718 42.4589 3.51682 41.5667 2.37008 41.5667C1.22228 41.5667 0.292969 42.4589 0.292969 43.5609C0.292969 44.6628 1.22228 45.556 2.37008 45.556Z" fill="#A2BADD"/>
    <path d="M18.5458 43.5599C18.5458 43.9543 18.4235 44.3407 18.1956 44.6689C17.9678 44.997 17.6437 45.253 17.2642 45.4035C16.8848 45.555 16.4666 45.5942 16.0642 45.5179C15.6607 45.4406 15.2906 45.251 15 44.972C14.7094 44.693 14.5118 44.3377 14.4313 43.9503C14.3508 43.5639 14.3916 43.1624 14.5495 42.7981C14.7063 42.4338 14.9728 42.1217 15.3147 41.9029C15.6554 41.6831 16.0579 41.5667 16.4687 41.5667C17.0186 41.5667 17.5475 41.7765 17.9364 42.1498C18.3263 42.5241 18.5448 43.031 18.5458 43.5599Z" fill="#A2BADD"/>
    <path d="M32.6476 43.5599C32.6476 43.9543 32.5263 44.3407 32.2984 44.6689C32.0705 44.997 31.7454 45.253 31.366 45.4035C30.9865 45.555 30.5694 45.5942 30.1659 45.5179C29.7635 45.4406 29.3934 45.251 29.1028 44.972C28.8122 44.693 28.6136 44.3377 28.5341 43.9503C28.4536 43.5639 28.4944 43.1624 28.6523 42.7981C28.8091 42.4338 29.0756 42.1217 29.4164 41.9029C29.7582 41.6831 30.1596 41.5667 30.5705 41.5667C31.1213 41.5667 31.6492 41.7765 32.0392 42.1498C32.4291 42.5241 32.6476 43.031 32.6476 43.5599Z" fill="#A2BADD"/>
    <path d="M44.6711 45.556C45.8178 45.556 46.7482 44.6628 46.7482 43.5609C46.7482 42.4589 45.8178 41.5667 44.6711 41.5667C43.5243 41.5667 42.594 42.4589 42.594 43.5609C42.594 44.6628 43.5243 45.556 44.6711 45.556Z" fill="#A2BADD"/>
    <path d="M60.8477 43.5599C60.8477 43.9543 60.7265 44.3407 60.4986 44.6689C60.2707 44.9971 59.9456 45.253 59.5661 45.4035C59.1867 45.5551 58.7696 45.5942 58.3661 45.5179C57.9636 45.4406 57.5936 45.251 57.303 44.972C57.0124 44.693 56.8138 44.3377 56.7343 43.9503C56.6538 43.5639 56.6946 43.1625 56.8524 42.7981C57.0092 42.4338 57.2758 42.1217 57.6166 41.9029C57.9584 41.6831 58.3598 41.5667 58.7707 41.5667C59.0435 41.5657 59.3142 41.6179 59.5661 41.7183C59.8181 41.8176 60.047 41.9652 60.2394 42.1498C60.4327 42.3355 60.5854 42.5553 60.6899 42.7971C60.7944 43.039 60.8477 43.2979 60.8477 43.5599Z" fill="#A2BADD"/>
    <path d="M74.9474 43.5599C74.9474 43.9543 74.8251 44.3407 74.5972 44.6689C74.3693 44.9971 74.0453 45.253 73.6658 45.4035C73.2864 45.5551 72.8682 45.5942 72.4658 45.5179C72.0623 45.4406 71.6922 45.251 71.4016 44.972C71.111 44.693 70.9135 44.3377 70.833 43.9503C70.7525 43.5639 70.7943 43.1625 70.9511 42.7981C71.1079 42.4338 71.3745 42.1217 71.7163 41.9029C72.0571 41.6831 72.4595 41.5667 72.8703 41.5667C73.1431 41.5657 73.4129 41.6179 73.6648 41.7183C73.9167 41.8176 74.1457 41.9652 74.3391 42.1498C74.5314 42.3355 74.684 42.5553 74.7885 42.7971C74.8931 43.039 74.9474 43.2979 74.9474 43.5599Z" fill="#A2BADD"/>
</svg>
