<svg width="83" height="46" viewBox="0 0 83 46" fill="none" xmlns="http://www.w3.org/2000/svg">
    <path d="M11.4449 6.16565C11.4345 7.15318 11.1312 8.1176 10.5668 8.93754C9.99182 9.75848 9.17646 10.3978 8.23565 10.7752C7.28438 11.1525 6.23902 11.2509 5.22503 11.0582C4.2215 10.8655 3.29122 10.3898 2.56993 9.69226C1.83818 8.99375 1.34676 8.10461 1.14814 7.13714C0.949524 6.16867 1.05409 5.16604 1.44087 4.25377C1.8381 3.3425 2.50721 2.56275 3.35394 2.01479C4.21113 1.46683 5.21455 1.17377 6.23899 1.17377C6.92892 1.17377 7.59799 1.3032 8.23565 1.5541C8.86286 1.805 9.43779 2.17231 9.91865 2.63597C10.3995 3.09964 10.7864 3.64962 11.0477 4.25579C11.309 4.86096 11.4449 5.5103 11.4449 6.16565Z" stroke="#EAF1FD" stroke-miterlimit="10"/>
    <path d="M46.7253 6.16561C46.7253 7.15314 46.4221 8.11857 45.8472 8.93951C45.2827 9.76044 44.4673 10.3998 43.5161 10.7781C42.5648 11.1555 41.5195 11.2548 40.516 11.0621C39.502 10.8694 38.5822 10.3937 37.8504 9.69624C37.1291 8.99774 36.6273 8.10756 36.4287 7.14011C36.23 6.17164 36.3346 5.16703 36.7214 4.25577C37.1186 3.34351 37.7877 2.56375 38.6344 2.01479C39.4916 1.46582 40.495 1.17377 41.5299 1.17377C42.9098 1.17377 44.2269 1.69962 45.1991 2.63597C46.1817 3.57231 46.7253 4.84188 46.7253 6.16561Z" stroke="#EAF1FD" stroke-miterlimit="10"/>
    <path d="M82.0057 6.16561C82.0057 7.15314 81.7025 8.11857 81.138 8.93951C80.5631 9.76044 79.7477 10.3998 78.7965 10.7781C77.8452 11.1555 76.7999 11.2548 75.7964 11.0621C74.7928 10.8694 73.8626 10.3937 73.1308 9.69624C72.4095 8.99774 71.9077 8.10756 71.709 7.14011C71.5104 6.17164 71.615 5.16703 72.0122 4.25577C72.399 3.34351 73.068 2.56375 73.9252 2.01479C74.7823 1.46582 75.7859 1.17377 76.8103 1.17377C77.4898 1.17377 78.1693 1.30222 78.7965 1.55311C79.4341 1.80401 80.0091 2.17133 80.4899 2.63498C80.9708 3.09864 81.3576 3.64963 81.619 4.25479C81.8698 4.86096 82.0057 5.51027 82.0057 6.16561Z" stroke="#EAF1FD" stroke-miterlimit="10"/>
    <path d="M11.4344 40.0518C11.4344 41.0383 11.1312 42.0027 10.5667 42.8237C9.99181 43.6436 9.17646 44.2829 8.2252 44.6602C7.2844 45.0376 6.23907 45.1359 5.2251 44.9432C4.22158 44.7506 3.29132 44.2749 2.57004 43.5774C1.83831 42.8799 1.34689 41.9907 1.14827 41.0222C0.949661 40.0547 1.04377 39.0512 1.441 38.1389C1.83823 37.2276 2.49687 36.4488 3.35404 35.8999C4.21121 35.3519 5.21462 35.0588 6.23904 35.0588C6.92896 35.0588 7.59801 35.1883 8.23567 35.4392C8.86287 35.6901 9.43779 36.0584 9.91864 36.5211C10.3995 36.9848 10.7863 37.5357 11.0477 38.1409C11.309 38.747 11.4344 39.3964 11.4344 40.0518Z" stroke="#EAF1FD" stroke-miterlimit="10"/>
    <path d="M46.7253 40.0518C46.7253 41.0394 46.4221 42.0039 45.8472 42.8248C45.2827 43.6458 44.4673 44.2861 43.5161 44.6634C42.5648 45.0418 41.5195 45.1401 40.516 44.9484C39.502 44.7557 38.5822 44.28 37.8504 43.5815C37.1291 42.883 36.6273 41.9938 36.4287 41.0253C36.23 40.0568 36.3346 39.0532 36.7214 38.1409C37.1186 37.2286 37.7877 36.4488 38.6344 35.9009C39.4916 35.3519 40.495 35.0588 41.5299 35.0588C42.9098 35.0588 44.2269 35.5848 45.1991 36.5211C46.1817 37.4575 46.7253 38.7271 46.7253 40.0518Z" stroke="#EAF1FD" stroke-miterlimit="10"/>
    <path d="M82.0057 40.0518C82.0057 41.0394 81.7025 42.0039 81.138 42.8248C80.5631 43.6458 79.7477 44.2861 78.7965 44.6634C77.8452 45.0418 76.7999 45.1401 75.7964 44.9484C74.7928 44.7557 73.8626 44.28 73.1308 43.5815C72.4095 42.883 71.9077 41.9938 71.709 41.0253C71.5104 40.0568 71.615 39.0532 72.0122 38.1409C72.399 37.2286 73.068 36.4488 73.9252 35.9009C74.7823 35.3519 75.7859 35.0588 76.8103 35.0588C77.4898 35.0588 78.1693 35.1883 78.7965 35.4392C79.4341 35.6891 80.0091 36.0575 80.4899 36.5211C80.9708 36.9848 81.3576 37.5347 81.619 38.1409C81.8698 38.7461 82.0057 39.3955 82.0057 40.0518Z" stroke="#EAF1FD" stroke-miterlimit="10"/>
</svg>
